# Blender v2.66 (sub 0) OBJ File: 'backgroudNegativesWall.blend'
# www.blender.org
o Cube
v 0.999999 1.000000 1.000001
v -1.000000 1.000000 1.000000
v -1.000000 1.000000 -1.000000
v 1.000000 -3.000000 1.000000
v -1.000000 -3.000000 1.000000
v -1.000000 -3.000000 -1.000000
vt 0.000100 0.000100
vt 0.500000 0.000100
vt 0.500000 0.999900
vt 0.999900 0.000100
vt 0.999900 0.999900
vt 0.000100 0.999900
vn 0.000000 -0.000000 -1.000000
vn 1.000000 0.000000 0.000000
s off
f 4/1/1 5/2/1 2/3/1
f 5/2/2 6/4/2 3/5/2
f 1/6/1 4/1/1 2/3/1
f 2/3/2 5/2/2 3/5/2
