# Blender v2.66 (sub 0) OBJ File: 'backgroudNegatives.blend'
# www.blender.org
o Cube
v 1.000000 -1.000000 -1.000000
v 1.000000 -1.000000 1.000000
v -1.000000 -1.000000 1.000000
v -1.000000 -1.000000 -1.000000
v 1.000000 1.000000 1.000000
v -1.000000 1.000000 1.000000
v -1.000000 1.000000 -1.000000
v 1.000000 -3.000000 1.000000
v -1.000000 -3.000000 1.000000
v -1.000000 -3.000000 -1.000000
vt 0.000100 0.666700
vt 0.333300 0.666700
vt 0.333300 0.999900
vt 0.000100 0.000100
vt 0.333300 0.000100
vt 0.333300 0.666500
vt 0.666500 0.000100
vt 0.666500 0.666500
vt 0.000100 0.999900
vt 0.000100 0.666500
vn -0.000000 1.000000 0.000000
vn 0.000000 -0.000000 -1.000000
vn 1.000000 0.000000 0.000000
s off
f 1/1/1 4/2/1 3/3/1
f 8/4/2 9/5/2 6/6/2
f 9/5/3 10/7/3 7/8/3
f 2/9/1 1/1/1 3/3/1
f 5/10/2 8/4/2 6/6/2
f 6/6/3 9/5/3 7/8/3
